<?xml version="1.0" standalone="no"?>
<!DOCTYPE svg PUBLIC "-//W3C//DTD SVG 20010904//EN"
 "http://www.w3.org/TR/2001/REC-SVG-20010904/DTD/svg10.dtd">
<svg version="1.0" xmlns="http://www.w3.org/2000/svg"
 width="512.000000pt" height="512.000000pt" viewBox="0 0 512.000000 512.000000"
 preserveAspectRatio="xMidYMid meet">

<g transform="translate(0.000000,512.000000) scale(0.100000,-0.100000)"
fill="#000000" stroke="none">
<path d="M2370 5114 c-19 -2 -78 -9 -130 -15 -548 -62 -1083 -325 -1489 -730
-405 -406 -651 -906 -732 -1489 -20 -143 -18 -527 4 -670 89 -580 328 -1058
728 -1459 658 -657 1607 -906 2504 -654 929 260 1646 1043 1819 1987 156 845
-103 1682 -705 2285 -399 398 -879 639 -1449 726 -100 15 -472 28 -550 19z
m514 -418 c934 -147 1671 -884 1811 -1814 8 -56 15 -106 15 -112 0 -7 -199
-10 -585 -10 l-584 0 -11 43 c-90 358 -374 637 -740 730 -68 17 -115 21 -230
21 -161 0 -253 -17 -388 -73 -278 -115 -508 -383 -582 -678 l-11 -43 -585 0
-585 0 6 58 c66 567 381 1114 844 1463 319 240 686 386 1081 429 117 12 424 4
544 -14z m-180 -1556 c113 -29 190 -73 276 -160 87 -86 131 -163 160 -276 36
-141 18 -294 -52 -427 -42 -81 -164 -203 -245 -245 -133 -70 -286 -88 -427
-52 -111 28 -189 73 -276 160 -87 86 -131 162 -160 276 -36 141 -18 294 52
427 42 80 163 201 245 245 132 70 286 88 427 52z m-1114 -822 c43 -171 138
-337 266 -465 363 -363 937 -390 1343 -62 148 121 284 337 331 527 l11 42 584
0 c386 0 585 -3 585 -10 0 -35 -34 -229 -55 -310 -143 -566 -498 -1040 -1002
-1340 -696 -415 -1580 -396 -2263 47 -538 350 -903 932 -975 1556 l-6 57 585
0 585 0 11 -42z"/>
<path d="M2492 2749 c-48 -14 -109 -80 -123 -131 -23 -89 12 -182 88 -229 57
-36 154 -34 210 3 62 41 88 90 88 168 0 77 -26 127 -85 166 -43 29 -125 39
-178 23z"/>
</g>
</svg>
